<svg height="512pt" viewBox="0 0 512 512" width="512pt" xmlns="http://www.w3.org/2000/svg">
    <path fill="white" d="m497 0h-482c-8.285156 0-15 6.714844-15 15v482c0 8.285156 6.714844 15 15 15h482c8.285156 0 15-6.714844 15-15v-482c0-8.285156-6.714844-15-15-15zm-15 482h-452v-452h452zm0 0"/>
    <path fill="white" d="m94 90h324c8.285156 0 15-6.714844 15-15 0-8.28125-6.714844-15-15-15h-324c-8.285156 0-15 6.71875-15 15 0 8.285156 6.714844 15 15 15zm0 0"/>
    <path fill="white" d="m167.34375 120c-8.285156 0-15 6.71875-15 15 0 8.285156 6.714844 15 15 15h177.3125c8.285156 0 15-6.714844 15-15 0-8.28125-6.714844-15-15-15zm0 0"/>
    <path fill="white" d="m75 452h95c8.285156 0 15-6.714844 15-15s-6.714844-15-15-15h-80v-99.097656h112v34.246094c-7.335938.980468-13 7.246093-13 14.851562 0 8.28125 6.714844 15 15 15h26c8.285156 0 15-6.71875 15-15 0-7.605469-5.664062-13.871094-13-14.851562v-104.148438c0-8.285156-6.714844-15-15-15s-15 6.714844-15 15v39.902344h-112v-82.902344h253v59h-53c-8.285156 0-15 6.714844-15 15s6.714844 15 15 15h53v16c0 8.285156 6.71875 15 15 15h64v92h-49v-25c0-8.285156-6.714844-15-15-15-8.28125 0-15 6.714844-15 15v25h-74c-8.285156 0-15 6.714844-15 15s6.714844 15 15 15h168c8.285156 0 15-6.714844 15-15v-242c0-8.285156-6.714844-15-15-15h-362c-8.285156 0-15 6.714844-15 15v242c0 8.285156 6.714844 15 15 15zm298-152v-30h49v30zm49-60h-49v-30h49zm0 0"/>
</svg>
