<svg width="50" height="51" viewBox="0 0 50 51" fill="none" xmlns="http://www.w3.org/2000/svg">
<path d="M25 50.353C38.8071 50.353 50 39.1601 50 25.353C50 11.5459 38.8071 0.353027 25 0.353027C11.1929 0.353027 0 11.5459 0 25.353C0 39.1601 11.1929 50.353 25 50.353Z" />
<path d="M30.7843 11.0393H19.2157C14.518 11.0393 10.6863 14.8628 10.6863 19.5687V31.1374C10.6863 35.8351 14.5098 39.6668 19.2157 39.6668H30.7843C35.482 39.6668 39.3137 35.8432 39.3137 31.1374V19.5687C39.3137 14.871 35.482 11.0393 30.7843 11.0393ZM36.4298 31.1374C36.4298 34.2583 33.9052 36.7828 30.7843 36.7828H19.2157C16.0948 36.7828 13.5703 34.2583 13.5703 31.1374V19.5687C13.5703 16.4478 16.0948 13.9233 19.2157 13.9233H30.7843C33.9052 13.9233 36.4298 16.4478 36.4298 19.5687V31.1374Z" fill="white"/>
<path d="M25 17.9509C20.9151 17.9509 17.5981 21.2679 17.5981 25.3529C17.5981 29.4379 20.9151 32.7549 25 32.7549C29.085 32.7549 32.402 29.4379 32.402 25.3529C32.402 21.2679 29.085 17.9509 25 17.9509ZM25 29.879C22.5 29.879 20.4739 27.8529 20.4739 25.3529C20.4739 22.8529 22.5 20.8267 25 20.8267C27.5 20.8267 29.5262 22.8529 29.5262 25.3529C29.5262 27.8529 27.5 29.879 25 29.879Z" fill="white"/>
</svg>
