<svg xmlns="http://www.w3.org/2000/svg" height="512pt" version="1.1" viewBox="0 0 512 512" width="512pt">
<g id="surface1">
<path d="M 452 204.507812 L 452 135 C 452 93.644531 418.355469 60 377 60 L 328.421875 60 C 330.085938 55.304688 331 50.257812 331 45 C 331 20.1875 310.8125 0 286 0 C 274.484375 0 263.96875 4.355469 256 11.496094 C 248.03125 4.355469 237.515625 0 226 0 C 201.1875 0 181 20.1875 181 45 C 181 50.257812 181.914062 55.304688 183.578125 60 L 135 60 C 93.644531 60 60 93.644531 60 135 L 60 204.507812 C 23.589844 246.089844 0 307.070312 0 361 C 0 460.320312 79.910156 512 180 512 L 331 512 C 430.277344 512 512 460.96875 512 361 C 512 306.9375 488.3125 245.980469 452 204.507812 Z M 286 30 C 294.269531 30 301 36.730469 301 45 C 301 53.269531 294.269531 60 286 60 C 277.730469 60 271 53.269531 271 45 C 271 36.730469 277.730469 30 286 30 Z M 211 45 C 211 36.730469 217.730469 30 226 30 C 234.269531 30 241 36.730469 241 45 C 241 53.269531 234.269531 60 226 60 C 217.730469 60 211 53.269531 211 45 Z M 135 90 L 377 90 C 401.8125 90 422 110.1875 422 135 L 422 176.976562 C 412.351562 170.046875 402.304688 164.492188 392 160.457031 L 392 135 C 392 126.714844 385.285156 120 377 120 L 135 120 C 126.714844 120 120 126.714844 120 135 L 120 160.457031 C 109.695312 164.492188 99.648438 170.046875 90 176.976562 L 90 135 C 90 110.1875 110.1875 90 135 90 Z M 331 482 L 180 482 C 107.484375 482 30 450.214844 30 361 C 30 292.824219 76.191406 203.433594 139.082031 185.644531 C 145.539062 183.816406 150 177.921875 150 171.210938 L 150 150 L 362 150 L 362 171.210938 C 362 177.921875 366.460938 183.816406 372.917969 185.644531 C 436.371094 203.59375 482 293.628906 482 361 C 482 450.214844 403.996094 482 331 482 Z M 331 482 " style=" stroke:none;fill-rule:nonzero;fill:rgb(255%,255%,255%);fill-opacity:1;" />
<path d="M 331 210 L 180 210 C 171.714844 210 165 216.714844 165 225 C 165 233.285156 171.714844 240 180 240 L 331 240 C 339.285156 240 346 233.285156 346 225 C 346 216.714844 339.285156 210 331 210 Z M 331 210 " style=" stroke:none;fill-rule:nonzero;fill:rgb(255%,255%,255%);fill-opacity:1;" />
</g>
</svg>
