<svg id="Capa_1" enable-background="new 0 0 512 512" height="512" viewBox="0 0 512 512" width="512"
     xmlns="http://www.w3.org/2000/svg">
    <path fill="white" d="m512 149.83v-28.93c0-16.55-13.46-30-30-30h-139.33v-3.34c0-22.05-17.95-40-40-40h-262.67c-22.06 0-40 17.95-40 40v282c0 22.06 17.94 40 40 40h21.33c6.89 31.35 34.88 54.88 68.26 54.88s61.37-23.53 68.25-54.88h146.24c6.88 31.35 34.87 54.88 68.25 54.88 33.73 0 61.95-24.02 68.47-55.86 17.84-4.02 31.2-19.98 31.2-39.02v-109.5c0-2.449-.703-5.121-1.58-6.7l-34.75-73.53h6.33c16.54 0 30-13.46 30-30zm-382.41 284.61c-22.018 0-39.88-17.92-39.88-39.88 0-21.892 17.799-39.87 39.88-39.87 22.043 0 39.87 17.945 39.87 39.87 0 21.894-17.783 39.88-39.87 39.88zm183.08-54.88h-114.83c-6.88-31.35-34.87-54.87-68.25-54.87s-61.37 23.52-68.26 54.87h-21.33c-5.51 0-10-4.48-10-10v-282c0-5.51 4.49-10 10-10h262.67c5.51 0 10 4.49 10 10zm30-199.73h99.82l30.83 65.23.001.002h-130.651c0-9.738 0-55.488 0-65.232zm69.66 254.61c-21.977 0-39.87-17.891-39.87-39.88 0-21.936 17.846-39.87 39.87-39.87 22.054 0 39.88 17.949 39.88 39.87 0 21.932-17.834 39.88-39.88 39.88zm69.67-159.377v94.498c0 2.43-.87 4.67-2.31 6.4-8.16-29.53-35.27-51.27-67.36-51.27-33.38 0-61.37 23.52-68.25 54.87h-1.41v-104.498zm-139.33-125.233v-28.93h139.33v28.93c-13.725 0-125.624 0-139.33 0z"/>
</svg>
